<svg id="Livello_1" data-name="Livello 1" xmlns="http://www.w3.org/2000/svg" viewBox="0 0 240.94 240.94"><defs><style>.cls-1,.cls-2{fill:#303030;}.cls-2{font-size:10.1px;font-family:FranklinGothic-Medium, Franklin Gothic Medium;font-weight:500;}.cls-3{letter-spacing:-0.02em;}.cls-4{letter-spacing:0em;}.cls-5{letter-spacing:0.02em;}.cls-6{letter-spacing:0.02em;}.cls-7{fill:#4cbd94;}</style></defs><title>logo_lvlUp</title><path class="cls-1" d="M47.67,139.45a1.82,1.82,0,0,1-1.36.58H43.66a2,2,0,0,1-1.94-1.94V91a2,2,0,0,1,1.94-1.94h2.65A2,2,0,0,1,48.25,91v47.07A1.82,1.82,0,0,1,47.67,139.45Z"/><path class="cls-1" d="M75.08,140H72.43a2.37,2.37,0,0,1-2.22-1.8L55.93,104.94a1.51,1.51,0,0,1-.07-.5,1.72,1.72,0,0,1,1.72-1.73h2.65a2.37,2.37,0,0,1,2.37,1.73l11.12,26,11.12-26a2.22,2.22,0,0,1,2.08-1.73h3a1.74,1.74,0,0,1,1.72,1.73,1.5,1.5,0,0,1-.08.5L77.24,138.23Q76.52,140,75.08,140Z"/><path class="cls-1" d="M105.15,139.45a1.86,1.86,0,0,1-1.37.58h-2.65a2,2,0,0,1-1.94-1.94V91a2,2,0,0,1,1.94-1.94h2.65A2,2,0,0,1,105.72,91v47.07A1.85,1.85,0,0,1,105.15,139.45Z"/><text class="cls-2" transform="translate(41.72 156.8)"><tspan class="cls-3">y</tspan><tspan class="cls-4" x="4.3" y="0">our pa</tspan><tspan class="cls-5" x="31.88" y="0">r</tspan><tspan x="35.43" y="0">tner in Indust</tspan><tspan class="cls-6" x="92.7" y="0">r</tspan><tspan x="96.29" y="0">y 4.0</tspan></text><path class="cls-7" d="M203.23,103.46l-2-2H166.6l-2,2v53.62h5V121l2.05-2.05h29.59l2-2Z"/><path class="cls-7" d="M201.18,122.54h-26l-2,2v32.49h5v-15l2-2h21l2-2.05V124.59Z"/><path class="cls-7" d="M153.83,89.05v40.43l-5.63,5.63H128.8l-5.63-5.63V89.05h-5v42.86l8.18,8.19h24.28l8.18-8.19V89.05Z"/><path class="cls-7" d="M145.28,89.05v22.88l-2,2h-9.45l-2-2V89.05h-5v40.43l2.05,2h19.43l2-2V89.05Z"/></svg>